<?xml version="1.0" encoding="UTF-8" standalone="no"?>
<!DOCTYPE svg PUBLIC "-//W3C//DTD SVG 1.1//EN" "http://www.w3.org/Graphics/SVG/1.1/DTD/svg11.dtd">
<svg width="100%" height="100%" viewBox="0 0 1315 208" version="1.1" xmlns="http://www.w3.org/2000/svg" xmlns:xlink="http://www.w3.org/1999/xlink" xml:space="preserve" xmlns:serif="http://www.serif.com/" style="fill-rule:evenodd;clip-rule:evenodd;stroke-linejoin:round;stroke-miterlimit:2;">
    <g transform="matrix(1,0,0,1,-67.893,-355.519)">
        <g transform="matrix(1,0,0,0.849747,0,64.7798)">
            <rect x="67.893" y="342.148" width="1314.55" height="243.938" style="fill:none;"/>
        </g>
        <g transform="matrix(0.419632,0,0,0.182688,95.6626,379.289)">
            <rect x="-9.277" y="-13.662" width="85.042" height="921.381"/>
        </g>
        <g transform="matrix(12.4732,0,0,12.4732,-2175.58,-6106.02)">
            <g transform="matrix(11.2371,0,0,11.2371,187.259,530.515)">
                <path d="M0.188,-0.72C0.116,-0.72 0.058,-0.662 0.058,-0.59L0.058,-0L0.166,-0L0.166,-0.252L0.67,-0.252L0.67,-0L0.778,-0L0.778,-0.59C0.778,-0.662 0.72,-0.72 0.648,-0.72L0.188,-0.72ZM0.166,-0.36L0.166,-0.59C0.166,-0.602 0.176,-0.612 0.188,-0.612L0.648,-0.612C0.66,-0.612 0.67,-0.602 0.67,-0.59L0.67,-0.36L0.166,-0.36Z" style="fill-rule:nonzero;"/>
            </g>
            <g transform="matrix(11.2371,0,0,11.2371,196.653,530.515)">
                <path d="M0.736,-0.387C0.744,-0.404 0.749,-0.423 0.749,-0.443L0.749,-0.59C0.749,-0.662 0.691,-0.72 0.619,-0.72L0.059,-0.72L0.059,-0L0.649,-0C0.721,-0 0.779,-0.058 0.779,-0.13L0.779,-0.291C0.779,-0.329 0.762,-0.364 0.736,-0.387ZM0.619,-0.612C0.631,-0.612 0.641,-0.602 0.641,-0.59L0.641,-0.443C0.641,-0.431 0.631,-0.421 0.619,-0.421L0.189,-0.421C0.177,-0.421 0.167,-0.431 0.167,-0.443L0.167,-0.59C0.167,-0.602 0.177,-0.612 0.189,-0.612L0.619,-0.612ZM0.671,-0.13C0.671,-0.118 0.661,-0.108 0.649,-0.108L0.189,-0.108C0.177,-0.108 0.167,-0.118 0.167,-0.13L0.167,-0.291C0.167,-0.303 0.177,-0.313 0.189,-0.313L0.649,-0.313C0.661,-0.313 0.671,-0.303 0.671,-0.291L0.671,-0.13Z" style="fill-rule:nonzero;"/>
            </g>
            <g transform="matrix(11.2371,0,0,11.2371,206.003,530.515)">
                <path d="M0.02,-0.72L0.02,-0.612L0.326,-0.612L0.326,-0L0.434,-0L0.434,-0.612L0.74,-0.612L0.74,-0.72L0.02,-0.72Z" style="fill-rule:nonzero;"/>
            </g>
            <g transform="matrix(11.2371,0,0,11.2371,214.532,530.515)">
                <path d="M0.718,-0.72L0.058,-0.72L0.058,-0L0.718,-0L0.718,-0.108L0.166,-0.108L0.166,-0.306L0.61,-0.306L0.61,-0.414L0.166,-0.414L0.166,-0.612L0.718,-0.612L0.718,-0.72Z" style="fill-rule:nonzero;"/>
            </g>
            <g transform="matrix(11.2371,0,0,11.2371,223.139,530.515)">
                <rect x="0.057" y="-0.72" width="0.108" height="0.72" style="fill-rule:nonzero;"/>
            </g>
            <g transform="matrix(11.2371,0,0,11.2371,225.611,530.515)">
                <path d="M0.057,-0L0.777,-0L0.777,-0.108L0.165,-0.108L0.165,-0.721L0.057,-0.721L0.057,-0Z" style="fill-rule:nonzero;"/>
            </g>
            <g transform="matrix(11.2371,0,0,11.2371,234.365,530.515)">
                <path d="M0.666,-0.13C0.666,-0.118 0.656,-0.108 0.644,-0.108L0.184,-0.108C0.172,-0.108 0.162,-0.118 0.162,-0.13L0.162,-0.72L0.054,-0.72L0.054,-0.13C0.054,-0.058 0.112,-0 0.184,-0L0.644,-0C0.716,-0 0.774,-0.058 0.774,-0.13L0.774,-0.72L0.666,-0.72L0.666,-0.13Z" style="fill-rule:nonzero;"/>
            </g>
            <g transform="matrix(11.2371,0,0,11.2371,243.669,530.515)">
                <path d="M0.668,-0.144L0.184,-0.72L0.056,-0.72L0.056,-0L0.164,-0L0.164,-0.576L0.648,-0L0.776,-0L0.776,-0.72L0.668,-0.72L0.668,-0.144Z" style="fill-rule:nonzero;"/>
            </g>
            <g transform="matrix(11.2371,0,0,11.2371,253.019,530.515)">
                <path d="M0.776,-0.59C0.776,-0.662 0.718,-0.72 0.646,-0.72L0.186,-0.72C0.114,-0.72 0.056,-0.662 0.056,-0.59L0.056,-0.13C0.056,-0.058 0.114,-0 0.186,-0L0.646,-0C0.718,-0 0.776,-0.058 0.776,-0.13L0.776,-0.394L0.498,-0.394L0.498,-0.286L0.668,-0.286L0.668,-0.13C0.668,-0.118 0.658,-0.108 0.646,-0.108L0.186,-0.108C0.174,-0.108 0.164,-0.118 0.164,-0.13L0.164,-0.59C0.164,-0.602 0.174,-0.612 0.186,-0.612L0.646,-0.612C0.658,-0.612 0.668,-0.602 0.668,-0.59L0.668,-0.547L0.776,-0.547L0.776,-0.59Z" style="fill-rule:nonzero;"/>
            </g>
        </g>
        <g transform="matrix(12.4732,0,0,12.4732,-1202.94,-6105.08)">
            <g transform="matrix(11.2371,0,0,11.2371,187.259,530.515)">
                <path d="M0.777,-0.612C0.766,-0.673 0.711,-0.72 0.647,-0.72L0.187,-0.72C0.115,-0.72 0.057,-0.662 0.057,-0.59L0.057,-0.446C0.057,-0.418 0.066,-0.391 0.082,-0.37C0.066,-0.349 0.057,-0.322 0.057,-0.294L0.057,-0.13C0.057,-0.058 0.115,-0 0.187,-0L0.647,-0C0.719,-0 0.777,-0.058 0.777,-0.13L0.777,-0.294C0.777,-0.322 0.768,-0.349 0.752,-0.37C0.768,-0.391 0.777,-0.418 0.777,-0.446L0.777,-0.612ZM0.669,-0.13C0.669,-0.118 0.659,-0.108 0.647,-0.108L0.187,-0.108C0.175,-0.108 0.165,-0.118 0.165,-0.13L0.165,-0.294C0.165,-0.306 0.175,-0.316 0.187,-0.316L0.647,-0.316C0.659,-0.316 0.669,-0.306 0.669,-0.294L0.669,-0.13ZM0.669,-0.435C0.669,-0.423 0.659,-0.413 0.647,-0.413L0.187,-0.413C0.175,-0.413 0.165,-0.423 0.165,-0.435L0.165,-0.589C0.165,-0.601 0.175,-0.611 0.187,-0.611L0.647,-0.611C0.659,-0.611 0.669,-0.601 0.669,-0.589L0.669,-0.435Z" style="fill-rule:nonzero;"/>
            </g>
            <g transform="matrix(11.2371,0,0,11.2371,196.631,530.515)">
                <path d="M0.73,-0.387C0.738,-0.404 0.743,-0.423 0.743,-0.443L0.743,-0.59C0.743,-0.662 0.685,-0.72 0.613,-0.72L0.183,-0.72C0.111,-0.72 0.053,-0.662 0.053,-0.59L0.053,-0.55L0.161,-0.55L0.161,-0.59C0.161,-0.602 0.171,-0.612 0.183,-0.612L0.613,-0.612C0.625,-0.612 0.635,-0.602 0.635,-0.59L0.635,-0.443C0.635,-0.431 0.625,-0.421 0.613,-0.421L0.183,-0.421L0.183,-0.313L0.643,-0.313C0.655,-0.313 0.665,-0.303 0.665,-0.291L0.665,-0.13C0.665,-0.118 0.655,-0.108 0.643,-0.108L0.183,-0.108C0.171,-0.108 0.161,-0.118 0.161,-0.13L0.161,-0.16L0.053,-0.16L0.053,-0.13C0.053,-0.058 0.111,-0 0.183,-0L0.643,-0C0.715,-0 0.773,-0.058 0.773,-0.13L0.773,-0.291C0.773,-0.329 0.756,-0.364 0.73,-0.387Z" style="fill-rule:nonzero;"/>
            </g>
        </g>
    </g>
</svg>
