<?xml version="1.0" encoding="utf-8"?>
<!-- Generator: Adobe Illustrator 19.0.1, SVG Export Plug-In . SVG Version: 6.00 Build 0)  -->
<svg version="1.1" id="public_x5F_sign_1_" xmlns="http://www.w3.org/2000/svg" xmlns:xlink="http://www.w3.org/1999/xlink" x="0px"
	 y="0px" viewBox="0 0 128 128" style="enable-background:new 0 0 128 128;" xml:space="preserve">
<style type="text/css">
	.st0{display:none;}
	.st1{display:inline;}
	.st2{display:inline;fill-rule:evenodd;clip-rule:evenodd;}
</style>
<g id="row3_1_">
	<g id="coffee" class="st0">
		<g class="st1">
			<path d="M38.2,84.1h44.4c4.1,0,7.4-3.4,7.4-7.5v-2c0,0,17.4-10,16.6-21.3c-1.5-21.8-16.6-9.5-16.6-9.5v-4.7H30.8v37.5
				C30.8,80.8,34.1,84.1,38.2,84.1z M90.1,48.6c0,0,11.3-8.7,11.9,4.7c0.3,7-11.9,16.6-11.9,16.6V48.6z M99.6,86.5H21.3v7.1h78.2
				V86.5z M0,5.9v116.1h128V5.9H0z M118.5,112.6H9.5V15.4h109V112.6z"/>
		</g>
	</g>
	<g id="fire_x5F_extinguisher" class="st0">
		<g class="st1">
			<path d="M106.3,28.4v-27L77.4,7.6v2.1c0,0-4.3,0-6.2,0c0-2.8,0-5.5,0-8.3C54.9-2.9,38.1,3.7,24.4,5.7c-0.2,1.2-0.3,2.5-0.5,3.7
				c8.8-0.6,17.5-1.2,26.3-1.8c0,0.2,0.3,2.2,0.3,2.2L21.7,26.3l0.9,3.8l29-13c0,0,3.8,3.7,5.3,5.7c-8.9,1.7-17.2,7.6-18.8,14.4
				c0,7.7,0,90.8,0,90.8h45.4c0,0,0.2-55.3,0-90.8c-2.1-7-10.2-13.1-17.9-14.4c0.8-1.1,4.6-2.7,4.6-2.7l7.1,0v2.1L106.3,28.4z
				 M75.4,47.5l0,57.8l-28.9,0V47.5H75.4z M73.3,49.5H48.5v53.7h24.8V49.5z"/>
		</g>
	</g>
	<g id="elevator" class="st0">
		<g class="st1">
			<path d="M107.6,52.9v42.7H128V52.9H107.6z M126.1,93.7h-16.7v-39h16.7V93.7z M57.9,110.6V71.9c0-1.9,0.8-1.7,0.8-1.7v14.1
				c0,1.4,1.1,2.6,2.4,2.6c1.3,0,2.4-1.2,2.4-2.6V66.1c0-3.2-2.4-5.7-5.4-5.7H43.9c-3,0-5.4,2.6-5.4,5.7v18.1c0,1.4,1.1,2.6,2.4,2.6
				c1.3,0,2.4-1.2,2.4-2.6V70.2c0,0,0.8-0.2,0.8,1.7v38.8c0,1.9,1.4,3.4,3.2,3.4c1.8,0,2.5-1.7,2.5-3.6V86.7h2.3v23.9
				c0,1.9,0.7,3.6,2.5,3.6C56.4,114.1,57.9,112.5,57.9,110.6z M85.2,110.6V71.9c0-1.9,0.8-1.7,0.8-1.7v14.1c0,1.4,1.1,2.6,2.4,2.6
				s2.4-1.2,2.4-2.6V66.1c0-3.2-2.4-5.7-5.4-5.7H71.2c-3,0-5.4,2.6-5.4,5.7v18.1c0,1.4,1.1,2.6,2.4,2.6c1.3,0,2.4-1.2,2.4-2.6V70.2
				c0,0,0.8-0.2,0.8,1.7v38.8c0,1.9,1.4,3.4,3.2,3.4c1.8,0,2.5-1.7,2.5-3.6V86.7h2.3v23.9c0,1.9,0.7,3.6,2.5,3.6
				C83.8,114.1,85.2,112.5,85.2,110.6z M37.1,6.5L26,25h22.3L37.1,6.5z M30.5,110.6V71.9c0-1.9,0.8-1.7,0.8-1.7v14.1
				c0,1.4,1.1,2.6,2.4,2.6c1.3,0,2.4-1.2,2.4-2.6V66.1c0-3.2-2.4-5.7-5.4-5.7H16.5c-3,0-5.4,2.6-5.4,5.7v18.1c0,1.4,1.1,2.6,2.4,2.6
				c1.3,0,2.4-1.2,2.4-2.6V70.2c0,0,0.8-0.2,0.8,1.7v38.8c0,1.9,1.4,3.4,3.2,3.4c1.8,0,2.5-1.7,2.5-3.6V86.7h2.3v23.9
				c0,1.9,0.7,3.6,2.5,3.6C29.1,114.1,30.5,112.5,30.5,110.6z M76.1,8.3H54.7l10.7,18.6L76.1,8.3z M117.8,67.7
				c2.6,0,4.6-2.1,4.6-4.6c0-2.6-2.1-4.6-4.6-4.6c-2.6,0-4.6,2.1-4.6,4.6C113.2,65.6,115.2,67.7,117.8,67.7z M117.8,60.3
				c1.5,0,2.8,1.2,2.8,2.8c0,1.5-1.2,2.8-2.8,2.8c-1.5,0-2.8-1.2-2.8-2.8C115,61.5,116.3,60.3,117.8,60.3z M78.1,59.7
				c3.2,0,5.8-2.8,5.8-6.2c0-3.4-2.6-6.2-5.8-6.2c-3.2,0-5.8,2.8-5.8,6.2C72.3,56.9,74.9,59.7,78.1,59.7z M117.8,78.8
				c2.6,0,4.6-2.1,4.6-4.6s-2.1-4.6-4.6-4.6c-2.6,0-4.6,2.1-4.6,4.6S115.2,78.8,117.8,78.8z M117.8,90c2.6,0,4.6-2.1,4.6-4.6
				c0-2.6-2.1-4.6-4.6-4.6c-2.6,0-4.6,2.1-4.6,4.6C113.2,87.9,115.2,90,117.8,90z M117.8,82.6c1.5,0,2.8,1.2,2.8,2.8
				c0,1.5-1.2,2.8-2.8,2.8c-1.5,0-2.8-1.2-2.8-2.8C115,83.8,116.3,82.6,117.8,82.6z M0,121.5h102V30.6H0V121.5z M7.4,38h87.2v76.1
				H82h-7.3H54.6h-7.3H27.3H20H7.4V38z M23.4,59.7c3.2,0,5.8-2.8,5.8-6.2c0-3.4-2.6-6.2-5.8-6.2c-3.2,0-5.8,2.8-5.8,6.2
				C17.6,56.9,20.2,59.7,23.4,59.7z M50.8,59.7c3.2,0,5.8-2.8,5.8-6.2c0-3.4-2.6-6.2-5.8-6.2c-3.2,0-5.8,2.8-5.8,6.2
				C45,56.9,47.6,59.7,50.8,59.7z"/>
		</g>
	</g>
	<g id="wc" class="st0">
		<g class="st1">
			<path d="M50.5,24.7c6.8,0,12.4-5.5,12.4-12.4S57.3,0,50.5,0S38.2,5.5,38.2,12.4S43.7,24.7,50.5,24.7z M103.3,105.5L92.1,74.1
				c0,0-18.7-1.5-29.2-2.2c0-6,0-12,0-18c7.5,0,24.7,0,24.7,0V40.4c0,0-14.5-0.3-26.9,0c0-3.7,0-11.2,0-11.2H40.4
				c0,0-2.9,58.4,9,58.4c12.6,0,33.7,0,33.7,0l13.5,33.7l24.7-6.7v-11.2L103.3,105.5z M53.9,116.8C34,116.8,18,100.7,18,80.8
				c0-13.4,7.3-25.1,18.2-31.2v-12c0-0.2-0.1-0.3-0.1-0.4c-17.2,7-29.2,23.9-29.2,43.6c0,26,21.1,47.2,47.2,47.2
				c13.1,0,25-5.3,33.5-14c-2-3.2-4.5-7-6.2-9.9C74.6,111.9,64.8,116.8,53.9,116.8z"/>
		</g>
	</g>
	<g id="exit" class="st0">
		<g class="st1">
			<path d="M37.9,73.5l8,6.3L45,92.4l7.1,2.4l2.4-19L45,68.7v-2.4h16.6v-7.1H49.8V47.4H33.2l-14.5,15l5.3,2.3l11.6-7.8l3.6,0.4
				L26.1,73.5H11.9v7.1h19L37.9,73.5z M0,7.1v113.8h128V7.1H0z M66.4,111.4H9.5V16.6h56.9V111.4z M99.6,80.6l-4.7-7.1l4.7-7.1H83
				v-9.5h16.6l-4.7-7.1l4.7-7.1l14.2,19L99.6,80.6z M49.8,45c3.9,0,7.1-3.2,7.1-7.1c0-3.9-3.2-7.1-7.1-7.1s-7.1,3.2-7.1,7.1
				C42.7,41.9,45.9,45,49.8,45z"/>
		</g>
	</g>
</g>
<g id="row2_1_">
	<g id="Nosmoking" class="st0">
		<g class="st1">
			<path d="M34.3,77.7h4.6V59.5h-4.6V77.7z M27.4,77.7H32V59.5h-4.6V77.7z M31.9,45.1c2-1.2,6.2-1.7,8.3-3.2
				c1.9-1.7,1.4-5.6,3.3-7.2c2.9-0.8,5.8-1.6,8.7-2.4c0.3-0.7,0.6-1.3,0.8-2c-0.4-0.4-0.8-0.8-1.2-1.2c-8.6-0.2-12.1,3.1-14.5,10
				c-10.1,0.2-12.2,10.8-7.5,18c0.1,0,0.3,0,0.4,0c1.9-0.3,1.2,0,2.1-1.2C32.9,53.2,31,48.8,31.9,45.1z M65.9,40.7
				c1.8-5.6-1.4-10.2-3.7-13.2c-1,0.3-1.9,0.5-2.9,0.8c0.8,3.9,5.7,8.9,2.1,13.2c-5.1,7.3-25.7,1.6-23.6,15.2
				c0.3,0.1,0.6,0.3,0.8,0.4c0.6,0,1.1,0,1.7,0c1.2-2,2.5-4,3.7-6C52,45.8,62.7,50.9,65.9,40.7z M64,0C28.7,0,0,28.7,0,64
				c0,35.3,28.7,64,64,64c35.3,0,64-28.7,64-64C128,28.7,99.3,0,64,0z M9.1,64C9.1,33.7,33.7,9.1,64,9.1c13.4,0,25.6,4.8,35.2,12.8
				L61.5,59.5H41.1v18.2h2.2L21.9,99.2C13.9,89.6,9.1,77.4,9.1,64z M64,118.9c-12.8,0-24.6-4.4-33.9-11.7l29.4-29.4h45.6V59.5H77.7
				l29.4-29.4c7.3,9.3,11.7,21.1,11.7,33.9C118.9,94.3,94.3,118.9,64,118.9z"/>
		</g>
	</g>
	<g id="woman" class="st0">
		<g class="st1">
			<path d="M84.9,35.9c0-6.1-4.9-11-10.9-11H53.4c-6,0-10.9,4.9-10.9,11L30.5,70.6c0,2.7,2.2,5,4.9,5c2.7,0,4.9-2.2,4.9-5l11.5-31.4
				l-13,49.1L50.5,88l-0.9,33.4c0,3.7,2.9,6.6,6.5,6.6c3.6,0,4.8-3.2,4.8-6.9V86.9h4.6v34.3c0,3.7,1.7,6.9,5.3,6.9
				c3.6,0,6.5-3,6.5-6.6l-0.4-33.6l11.8,0.5L76.2,39.7l11.5,30.9c0,2.7,2.2,5,4.9,5c2.7,0,4.9-2.2,4.9-5L84.9,35.9z M62.9,23.7
				c6.4,0,11.7-5.3,11.7-11.9C74.6,5.3,69.4,0,62.9,0c-6.4,0-11.7,5.3-11.7,11.9C51.2,18.4,56.5,23.7,62.9,23.7z"/>
		</g>
	</g>
	<g id="hospital" class="st0">
		<g class="st1">
			<path d="M0,0v128h128V0H0z M117.3,117.3H10.7V10.7h106.7V117.3z M54.2,101.3h22.3V76.5h24.8V54.2H76.5V29.3H54.2v24.8H29.3v22.3
				h24.8V101.3z"/>
		</g>
	</g>
	<g id="man">
		<g>
			<path d="M78.3,25.1H49.7c-6,0-10.8,4.9-10.8,11v34.7c0,2.7,2.2,5,4.9,5s4.9-2.2,4.9-5v-27c0,0,1.6-0.3,1.6,3.3v74.3
				c0,3.6,2.9,6.6,6.5,6.6c3.6,0,5-3.2,5-6.9V75.4h4.6v45.7c0,3.6,1.4,6.9,5,6.9s6.5-3,6.5-6.6V47.1c0-3.6,1.6-3.3,1.6-3.3v27
				c0,2.7,2.2,5,4.9,5s4.9-2.2,4.9-5V36.1C89.1,30,84.3,25.1,78.3,25.1z M63.6,23.7c6.4,0,11.7-5.3,11.7-11.9C75.2,5.3,70,0,63.6,0
				c-6.4,0-11.7,5.3-11.7,11.9C51.9,18.4,57.1,23.7,63.6,23.7z"/>
		</g>
	</g>
	<g id="Parking" class="st0">
		<g class="st1">
			<path d="M0,0v128h128V0H0z M117.3,117.3H10.7V10.7h106.7V117.3z M57,75.4h14.4c7.5,0,13.3-1.7,17.3-5.1c4-3.4,6.1-9.1,6.1-17.3
				c0-7.5-2-13-6.1-16.5c-4.1-3.6-9.5-5.3-16.4-5.3H42.7v69.1H57V75.4z M57,43.1h13c3.3,0,5.9,0.8,7.7,2.3c1.8,1.5,2.7,4.1,2.7,7.7
				s-0.9,6.2-2.7,7.9c-1.8,1.7-4.4,2.5-7.7,2.5H57V43.1z"/>
		</g>
	</g>
</g>
<g id="row1_1_">
	<g id="atm" class="st0">
		<g class="st1">
			<path d="M93.3,50.7h8v-8h-8V50.7z M101.3,32h-8v8h8V32z M93.3,61.3h8v-8h-8V61.3z M104,61.3h8v-8h-8V61.3z M26.7,104H104v-2.7
				H26.7V104z M104,50.7h8v-8h-8V50.7z M26.7,109.3H104v-2.7H26.7V109.3z M18.7,93.3H24V80h2.7v18.7H104V80h2.7v13.3h5.3V74.7H18.7
				V93.3z M29.3,80H58c-1.3,1.4-2,3.3-2,5.3c0,4.4,3.6,8,8,8c4.4,0,8-3.6,8-8c0-2.1-0.8-3.9-2-5.3h31.4v8c0,0-4.5,1.9-5.3,2.7
				c-1.7,1.6-2.7,5.3-2.7,5.3h-56c0,0-1.3-3.9-2.7-5.3c-1.5-1.6-5.3-2.7-5.3-2.7V80z M28.9,44.8h5.7l1,3.2h3.5l-5.4-15.4H30L24.5,48
				h3.4L28.9,44.8z M31.8,36.2l1.9,6h-3.9L31.8,36.2z M104,40h8v-8h-8V40z M42.8,48H46V35.4h4.6v-2.7H38.2v2.7h4.6V48z M0,0v128h128
				V0H0z M120,120H8V8h112V120z M90.7,53.3h-8v8h8V53.3z M77.3,24H16v34.7h61.3V24z M72,53.3H21.3v-24H72V53.3z M90.7,32h-8v8h8V32z
				 M90.7,42.7h-8v8h8V42.7z M112,24H82.7v5.3H112V24z M55.4,37.6c0-0.3,0-0.7,0-1.3c0-0.5,0-1,0-1.2L58.3,48h3.1l2.9-12.9
				c0,0.3,0,0.7,0,1.2c0,0.5,0,1,0,1.3V48h3V32.6h-4.6l-2.8,12.1l-2.8-12.1h-4.7V48h3V37.6z"/>
		</g>
	</g>
	<g id="Garbage_x5F_Man" class="st0">
		<g class="st1">
			<path d="M97.3,23.3c6.3,0,11.5-5.2,11.5-11.7c0-6.4-5.1-11.7-11.5-11.7c-6.3,0-11.5,5.2-11.5,11.7C85.8,18.1,90.9,23.3,97.3,23.3
				z M43.8,44.9c0,0-8.2-1.3-13.5,2.2c-4.8,3.2-6.7,18-6.7,18s7-3.3,13.5-9C43.6,50.4,43.8,44.9,43.8,44.9z M111.8,24.7H83.6
				l-35.8,6.1c-2.3,0.4-4.1,2.4-4.1,4.8v0c0,2.7,2.2,4.9,4.9,4.9H82c0,0,2.2,2.3,2.2,5.9v73c0,3.6,2.9,6.5,6.4,6.5
				c3.5,0,4.9-3.2,4.9-6.7V74.1h4.5V119c0,3.6,1.4,6.7,4.9,6.7c3.5,0,6.4-2.9,6.4-6.5v-73c0-3.6,1.6-3.2,1.6-3.2v26.5
				c0,2.7,2.1,4.9,4.8,4.9c2.6,0,4.8-2.2,4.8-4.9V35.5C122.4,29.5,117.6,24.7,111.8,24.7z M10.1,128h42.7l4.5-60.6H5.6L10.1,128z
				 M19.1,123.5h-4.5l-0.6-6.7h5.1V123.5z M19.1,114.5h-5.3l-0.8-9h6.1V114.5z M19.1,103.3h-6.2l-0.8-9h7V103.3z M19.1,92.1h-7.2
				l-0.8-9h8V92.1z M43.8,71.9h9l-0.8,9h-8.2V71.9z M43.8,83.1h8l-0.8,9h-7.2V83.1z M43.8,94.3h7l-0.8,9h-6.2V94.3z M43.8,105.5h6.1
				l-0.8,9h-5.3V105.5z M43.8,116.8h5.1l-0.6,6.7h-4.5V116.8z M32.6,71.9h9v9h-9V71.9z M32.6,83.1h9v9h-9V83.1z M32.6,94.3h9v9h-9
				V94.3z M32.6,105.5h9v9h-9V105.5z M32.6,116.8h9v6.7h-9V116.8z M21.3,71.9h9v9h-9V71.9z M21.3,83.1h9v9h-9V83.1z M21.3,94.3h9v9
				h-9V94.3z M21.3,105.5h9v9h-9V105.5z M21.3,116.8h9v6.7h-9V116.8z M19.1,71.9v9h-8.2l-0.8-9H19.1z"/>
		</g>
	</g>
	<g id="stair_x5F_down" class="st0">
		<g class="st1">
			<path d="M111.1,90.4H88.5L43.3,32H16.9C7.6,32,0,37.7,0,47.1s7.6,15.1,16.9,15.1h11.3l48.9,58.4h33.9c9.4,0,16.9-5.7,16.9-15.1
				C128,96.1,120.4,90.4,111.1,90.4z M60.2,22.6c4.2,0,7.5-3.4,7.5-7.5c0-4.2-3.4-7.5-7.5-7.5s-7.5,3.4-7.5,7.5
				C52.7,19.2,56.1,22.6,60.2,22.6z M54.6,39.5L64,50.8c0,0,2.4-24.5-4.7-24.5C51.3,26.4,54.6,39.5,54.6,39.5z M76.7,68.8l10,2.8
				l-1-10l-3,2.4l-11.8-15l-3,2.4l11.8,15L76.7,68.8z"/>
		</g>
	</g>
	<g id="stair_x5F_up" class="st0">
		<g class="st1">
			<path d="M111.1,19.8H84.7L39.5,78.1H16.9C7.6,78.1,0,83.8,0,93.2c0,9.4,7.6,15.1,16.9,15.1h35.8l47.1-58.4h11.3
				c9.4,0,16.9-5.7,16.9-15.1S120.4,19.8,111.1,19.8z M39.5,46.1c4.2,0,7.5-3.4,7.5-7.5c0-4.2-3.4-7.5-7.5-7.5
				c-4.2,0-7.5,3.4-7.5,7.5C32,42.7,35.4,46.1,39.5,46.1z M40.5,49.9c-7.1,0-4.7,24.5-4.7,24.5l9.4-11.3
				C45.2,63.1,48.5,49.9,40.5,49.9z M53.1,45.5l11.7-14.7l2.9,2.3l1-9.8l-9.9,2.7l2.9,2.3L50.1,43.2L53.1,45.5z"/>
		</g>
	</g>
	<g id="wifi_2_" class="st0">
		<path class="st2" d="M116.2,24.6H11.8C5.3,24.6,0,29.9,0,36.4v55.1c0,6.5,5.3,11.8,11.8,11.8h104.4c6.5,0,11.8-5.3,11.8-11.8V36.4
			C128,29.9,122.7,24.6,116.2,24.6z M41.5,75.8h-5.1l-3.1-14.9L32.4,56l-0.9,4.9l-3.1,14.9h-5l-7.2-25.5h5.7l3.4,14.6L26,69l0.7-4
			l2.9-14.7h5.6l3,14.6l0.8,4.1l0.8-3.9l3.4-14.8h5.4L41.5,75.8z M56.3,75.8h-5V57h5V75.8z M56.3,54.7h-5v-4.5h5V54.7z M120.1,90
			c0,4.1-3.3,5.5-7.3,5.5H68.9v-63h43.9c4,0,7.3,1.4,7.3,5.5V90z"/>
		<g id="Fi" class="st1">
			<g>
				<path d="M79.5,75.8h5.3V65.1h11.3v-4.4H84.8v-5.9h12.9v-4.5H79.5V75.8z M100.8,50.1v4.6h5v-4.6H100.8z M100.8,75.8h5V57h-5V75.8
					z"/>
			</g>
		</g>
	</g>
</g>
</svg>
